<svg enable-background="new 0 0 512 512" viewBox="0 0 512 512" xmlns="http://www.w3.org/2000/svg"><path d="m504.711 309.169c0 80.733-111.352 146.181-248.711 146.181s-248.711-65.447-248.711-146.181 111.352-146.18 248.711-146.18 248.711 65.447 248.711 146.18z" fill="#f2a74e"/><path d="m510.661 244.216c0 31.784-7.488 89.521-43.747 99.215-37.533 10.034-64.384-20.418-94.941-20.418-58.444 0-47.821 50.247-115.973 50.247s-68.152-34.12-102.665-47.963c-47.716-19.139-37.533 15.988-95.92 2.284-50.138-11.769-56.076-32.192-56.076-83.365 0-97.758 114.016-177.007 254.661-177.007s254.661 79.249 254.661 177.007z" fill="#77431d"/><path d="m343.932 200.821c0 23.599-39.369 42.729-87.932 42.729s-87.932-19.13-87.932-42.729 39.369-32.503 87.932-32.503 87.932 8.905 87.932 32.503z" fill="#fff"/><path d="m343.932 200.821c0 7.213-3.693 14.003-10.187 19.963-4.865-18.363-33.706-31.346-77.746-31.346s-72.384 13.202-78.743 30.399c-5.87-5.728-9.189-12.182-9.189-19.016 0-23.599 39.369-42.729 87.932-42.729 48.565 0 87.933 19.131 87.933 42.729z" fill="#f8a106"/><path d="m85.822 233.181c-1.009 0-2.035-.119-3.059-.367l-33.902-8.217c-6.947-1.684-11.214-8.681-9.53-15.628 1.684-6.946 8.68-11.211 15.628-9.53l33.902 8.217c6.947 1.684 11.214 8.681 9.53 15.628-1.436 5.922-6.733 9.897-12.569 9.897zm338.656 58.255 31.557-13.744c6.554-2.854 9.553-10.48 6.698-17.034-2.854-6.554-10.482-9.554-17.034-6.698l-31.557 13.744c-6.554 2.854-9.553 10.48-6.698 17.034 2.121 4.871 6.878 7.778 11.873 7.778 1.724 0 3.479-.347 5.161-1.08zm-164.041-179.423c1.707-6.941-2.537-13.952-9.479-15.659l-31.009-7.624c-6.937-1.706-13.952 2.537-15.659 9.479-1.707 6.941 2.537 13.952 9.479 15.659l31.009 7.624c1.038.255 2.077.377 3.1.377 5.819 0 11.107-3.952 12.559-9.856z" fill="#ffa9ba"/><path d="m97.183 300.93c-5.008 0-9.833-2.755-12.245-7.53-3.411-6.757-.699-14.999 6.058-18.41l33.854-17.092c6.754-3.412 14.999-.699 18.41 6.057 3.411 6.757.699 14.999-6.058 18.41l-33.854 17.092c-1.98.999-4.089 1.473-6.165 1.473zm248.574-162.55 33.854-8.546c7.339-1.853 11.785-9.304 9.933-16.642s-9.302-11.785-16.642-9.933l-33.854 8.546c-7.339 1.853-11.786 9.303-9.933 16.642 1.568 6.213 7.148 10.353 13.277 10.353 1.111 0 2.239-.136 3.365-.42zm10.063 153.437 6.726-32.396c1.539-7.411-3.222-14.666-10.632-16.205-7.418-1.537-14.666 3.223-16.204 10.633l-6.726 32.395c-1.539 7.411 3.222 14.666 10.632 16.204.94.195 1.877.289 2.8.289 6.358.001 12.062-4.449 13.404-10.92z" fill="#5fd6ff"/><path d="m255.899 313.121c-2.138 0-4.307-.502-6.333-1.56l-30.884-16.131c-6.708-3.504-9.307-11.783-5.803-18.492 3.505-6.708 11.783-9.304 18.492-5.803l30.884 16.131c6.709 3.504 9.307 11.783 5.803 18.492-2.446 4.683-7.217 7.363-12.159 7.363zm-140.127-158.075 28.399-15.232c5.876-3.152 8.085-10.471 4.933-16.348-3.152-5.876-10.47-8.086-16.348-4.933l-28.399 15.232c-5.876 3.152-8.085 10.471-4.933 16.348 2.178 4.061 6.345 6.37 10.651 6.37 1.926 0 3.881-.462 5.697-1.437zm348.712 24.164c.848-7.521-4.562-14.305-12.084-15.152l-34.484-3.885c-7.52-.853-14.306 4.562-15.152 12.084-.848 7.521 4.562 14.305 12.084 15.152l34.484 3.885c.521.059 1.038.087 1.551.087 6.882.001 12.813-5.171 13.601-12.171z" fill="#ffcd2e"/></svg>