<svg height="20" viewBox="0 0 20 20" width="20" xmlns="http://www.w3.org/2000/svg"><path d="m9.5 3c.24545989 0 .44960837.17687516.49194433.41012437l.00805567.08987563v3c0 1.20932545-.85866183 2.21809967-1.99956551 2.44990271l-.00043449 7.55009729c0 .2761424-.22385763.5-.5.5-.24545989 0-.44960837-.1768752-.49194433-.4101244l-.00805567-.0898756.00057405-7.5498926c-1.08705348-.22039362-1.91810854-1.14609249-1.99479167-2.27872311l-.00578238-.17138429v-3c0-.27614237.22385763-.5.5-.5.24545989 0 .44960837.17687516.49194433.41012437l.00805567.08987563v3c0 .65321869.41754351 1.20891488 1.00029246 1.41475048l-.00029246-4.41475048c0-.27614237.22385763-.5.5-.5.24545989 0 .44960837.17687516.49194433.41012437l.00805567.08987563.00070296 4.41439849c.53744212-.19026144.93415544-.67816719.99200812-1.26558542l.00728892-.14881307v-3c0-.27614237.22385763-.5.5-.5zm5 0c.2454599 0 .4496084.17687516.4919443.41012437l.0080557.08987563v13c0 .2761424-.2238576.5-.5.5-.2454599 0-.4496084-.1768752-.4919443-.4101244l-.0080557-.0898756v-5.5h-1.5c-.2454599 0-.4496084-.1768752-.4919443-.4101244l-.0080557-.0898756v-5c0-1.38071187 1.1192881-2.5 2.5-2.5zm-.5 7v-5.91464715c-.5377811.19007835-.9348066.67812705-.9927053 1.26577498l-.0072947.14887217v4.5h1v-5.91464715z" fill="#212121"/></svg>