<svg viewBox="0 0 32 32" xmlns="http://www.w3.org/2000/svg"><path d="m24.84375 4.0625-.96875.28125-7.6875 2.1875-.9375.28125.1875.6875-7.21875-2.09375-.96875-.28125-.28125.96875-2.8125 9.5625c-.339844 1.183594-.546875 2.597656-.15625 3.96875.316406 1.109375 1.109375 2.175781 2.34375 2.8125l-.90625 3.28125-2.875-.84375-.5625 1.9375 7.6875 2.21875.5625-1.9375-2.875-.84375.90625-3.25c1.382813.113281 2.609375-.386719 3.46875-1.15625 1.0625-.953125 1.660156-2.222656 2-3.40625l2.46875-8.25 2.03125 7.21875v.03125c.339844 1.183594.9375 2.453125 2 3.40625.867188.777344 2.078125 1.246094 3.46875 1.125l.90625 3.28125-2.875.84375.5625 1.9375 7.6875-2.21875-.5625-1.9375-2.875.84375-.9375-3.28125c1.234375-.636719 2.027344-1.703125 2.34375-2.8125.390625-1.371094.214844-2.785156-.125-3.96875l-2.71875-9.625zm-1.34375 2.46875 1.25 4.46875h-6.25l-.78125-2.8125zm-14.875 1.09375 5.75 1.625-.8125 2.75h-6.25zm10.4375 5.375h6.25l.625 2.21875c.269531.929688.363281 2.035156.125 2.875s-.691406 1.429688-1.90625 1.78125c-1.214844.351563-1.914062.082031-2.5625-.5-.648437-.582031-1.167969-1.570312-1.4375-2.5zm-12.34375 1h6.25l-1.125 3.875h-.03125c-.269531.929688-.757812 1.917969-1.40625 2.5-.648437.582031-1.347656.851563-2.5625.5-1.214844-.351562-1.667969-.941406-1.90625-1.78125s-.144531-1.945312.125-2.875z"/></svg>